# xmcd
#
# Track frame offsets:
#	182
#	15535
#	27857
#	41777
#	55330
#	68662
#	82787
#	96542
#	110585
#	124625
#	139312
#	154742
#	169120
#	181425
#	194282
#	207392
#	221960
#	235585
#	248910
#	262515
#
# Disc length: 3676 seconds
#
# Revision: 1
# Processed by: cddbd v1.5.1PL0 Copyright (c) Steve Scherf et al.
# Submitted via: audiograbber 1.83.01
#
DISCID=170e5a14
DTITLE=Various Artist - Chicago Blues CD1
DYEAR=1900
DGENRE=Blues
TTITLE0=Big Bill Broonzy - Friendless Blues
TTITLE1=Big Bill Broonzy - Mississippi River Blues
TTITLE2=Lil Johnson - Keep On Knocking
TTITLE3=Leroy Carr - When The Sun Goes Down
TTITLE4=Memphis Minnie - Hustlin' Woman Blues
TTITLE5=Joe McCoy - Well Well (J. McCoy)
TTITLE6=Washboard Sam - I Love All My Women
TTITLE7=Robert Lee McCoy - Prowlin' Night Hawk
TTITLE8=Sonny Boy Williamson - Bluebird Blues
TTITLE9=Tampa Red - My Gal Is Gone
TTITLE10=Jazz Gillum - My Old Lizzie
TTITLE11=Washboard Sam - Back Door
TTITLE12=Sonny Boy Williamson - Bad Luck Blues 1939
TTITLE13=Sonny Boy Williamson - I Been Dealing With The Devil
TTITLE14=Yank Rachell - 38 Pistol Blues
TTITLE15=Big Joe Williams - Break 'Em On Down
TTITLE16=Lil Green - Why Don't You Do Right?
TTITLE17=Mig Maceo - Worried Life Blues
TTITLE18=Memphis Sam - Beer Drinking Woman
TTITLE19=Robert Lockwood - I'm Gonna Train My Baby
EXTD=
EXTT0=
EXTT1=
EXTT2=
EXTT3=
EXTT4=
EXTT5=
EXTT6=
EXTT7=
EXTT8=
EXTT9=
EXTT10=
EXTT11=
EXTT12=
EXTT13=
EXTT14=
EXTT15=
EXTT16=
EXTT17=
EXTT18=
EXTT19=
PLAYORDER=
